<svg width="24" height="24" viewBox="0 0 24 24" fill="none" xmlns="http://www.w3.org/2000/svg">
<path d="M13.9998 11H12.9998V9.99997C12.9998 9.73475 12.8944 9.4804 12.7069 9.29286C12.5194 9.10533 12.265 8.99997 11.9998 8.99997C11.7346 8.99997 11.4802 9.10533 11.2927 9.29286C11.1051 9.4804 10.9998 9.73475 10.9998 9.99997V11H9.99979C9.73457 11 9.48022 11.1053 9.29268 11.2929C9.10514 11.4804 8.99979 11.7348 8.99979 12C8.99979 12.2652 9.10514 12.5195 9.29268 12.7071C9.48022 12.8946 9.73457 13 9.99979 13H10.9998V14C10.9998 14.2652 11.1051 14.5195 11.2927 14.7071C11.4802 14.8946 11.7346 15 11.9998 15C12.265 15 12.5194 14.8946 12.7069 14.7071C12.8944 14.5195 12.9998 14.2652 12.9998 14V13H13.9998C14.265 13 14.5194 12.8946 14.7069 12.7071C14.8944 12.5195 14.9998 12.2652 14.9998 12C14.9998 11.7348 14.8944 11.4804 14.7069 11.2929C14.5194 11.1053 14.265 11 13.9998 11ZM20.1598 4.99997C19.0935 3.94467 17.6851 3.30524 16.1888 3.19705C14.6925 3.08886 13.2068 3.51904 11.9998 4.40997C10.7274 3.46361 9.14378 3.03448 7.56771 3.20901C5.99164 3.38353 4.54023 4.14875 3.50576 5.35055C2.47129 6.55236 1.93061 8.10149 1.99259 9.68598C2.05457 11.2705 2.71461 12.7726 3.83979 13.89L9.83979 19.94C10.4023 20.5018 11.1648 20.8173 11.9598 20.8173C12.7548 20.8173 13.5173 20.5018 14.0798 19.94L20.0798 13.89C20.6707 13.3126 21.1417 12.6242 21.4657 11.8642C21.7897 11.1042 21.9604 10.2877 21.9678 9.4616C21.9752 8.63548 21.8193 7.81603 21.5091 7.05035C21.1988 6.28467 20.7402 5.58786 20.1598 4.99997ZM18.7498 12.46L12.7498 18.46C12.6568 18.5537 12.5462 18.6281 12.4244 18.6789C12.3025 18.7296 12.1718 18.7558 12.0398 18.7558C11.9078 18.7558 11.7771 18.7296 11.6552 18.6789C11.5334 18.6281 11.4228 18.5537 11.3298 18.46L5.32979 12.46C4.54555 11.6583 4.1064 10.5814 4.1064 9.45997C4.1064 8.3385 4.54555 7.26162 5.32979 6.45997C6.12894 5.67096 7.20676 5.22854 8.32979 5.22854C9.45281 5.22854 10.5306 5.67096 11.3298 6.45997C11.4228 6.5537 11.5334 6.62809 11.6552 6.67886C11.7771 6.72963 11.9078 6.75577 12.0398 6.75577C12.1718 6.75577 12.3025 6.72963 12.4244 6.67886C12.5462 6.62809 12.6568 6.5537 12.7498 6.45997C13.5489 5.67096 14.6268 5.22854 15.7498 5.22854C16.8728 5.22854 17.9506 5.67096 18.7498 6.45997C19.54 7.26252 19.983 8.34365 19.983 9.46997C19.983 10.5963 19.54 11.6774 18.7498 12.48V12.46Z" fill="#DCE0EC"/>
</svg>
